<?xml version="1.0" standalone="no"?>
<!DOCTYPE svg PUBLIC "-//W3C//DTD SVG 1.1//EN" "http://www.w3.org/Graphics/SVG/1.1/DTD/svg11.dtd" >
<svg xmlns="http://www.w3.org/2000/svg">
<metadata>Generated by IcoMoon</metadata>
<defs>
<font id="rbt-fonts" horiz-adv-x="1024">
<font-face units-per-em="1024" ascent="960" descent="-64" />
<missing-glyph horiz-adv-x="1024" />
<glyph unicode="&#x20;" horiz-adv-x="512" d="" />
<glyph unicode="&#xe900;" glyph-name="rvt-icon-gear" d="M892.16 398.080c2.24 14.835 3.629 32.117 3.838 49.684l0.002 0.236c-0.049 20.369-1.676 40.319-4.765 59.782l0.285-2.182 115.2 70.4c-13.924 52.229-34.082 98.012-60.127 139.743l1.247-2.143-131.84-33.28c-22.196 28.829-47.488 53.715-75.782 74.795l-1.018 0.725 28.8 133.76c-39.245 23.59-84.654 42.694-132.806 54.924l-3.514 0.756-69.76-117.12c-14.835 2.24-32.117 3.629-49.684 3.838l-0.236 0.002c-20.369-0.049-40.319-1.676-59.782-4.765l2.182 0.285-70.4 115.2c-52.229-13.924-98.012-34.082-139.743-60.127l2.143 1.247 33.28-131.84c-28.829-22.196-53.715-47.488-74.795-75.782l-0.725-1.018-133.76 28.8c-23.59-39.245-42.694-84.654-54.924-132.806l-0.756-3.514 117.12-69.76c-2.24-14.835-3.629-32.117-3.838-49.684l-0.002-0.236c0.049-20.369 1.676-40.319 4.765-59.782l-0.285 2.182-115.2-70.4c13.924-52.229 34.082-98.012 60.127-139.743l-1.247 2.143 131.84 33.28c22.196-28.829 47.488-53.715 75.782-74.795l1.018-0.725-28.8-133.76c39.994-23.821 86.297-42.958 135.399-54.961l3.481-0.719 69.76 117.12c13.959-2.123 30.339-3.508 46.978-3.834l0.382-0.006c20.369 0.049 40.319 1.676 59.782 4.765l-2.182-0.285 70.4-115.2c52.229 13.924 98.012 34.082 139.743 60.127l-2.143-1.247-33.28 131.84c28.829 22.196 53.715 47.488 74.795 75.782l0.725 1.018 133.76-28.8c23.821 39.994 42.958 86.297 54.961 135.399l0.719 3.481zM512 256c-106.039 0-192 85.961-192 192s85.961 192 192 192c106.039 0 192-85.961 192-192v0c0-106.039-85.961-192-192-192v0z" />
<glyph unicode="&#xe901;" glyph-name="rvt-icon-building" d="M960 64h-64v832c0 35.346-28.654 64-64 64v0h-640c-35.346 0-64-28.654-64-64v0-832h-64c-35.346 0-64-28.654-64-64s28.654-64 64-64v0h896c35.346 0 64 28.654 64 64s-28.654 64-64 64v0zM576 64v64c0 35.346-28.654 64-64 64s-64-28.654-64-64v0-64h-192v768h512v-768zM352 768h64c17.673 0 32-14.327 32-32v-64c0-17.673-14.327-32-32-32h-64c-17.673 0-32 14.327-32 32v64c0 17.673 14.327 32 32 32zM352 576h64c17.673 0 32-14.327 32-32v-64c0-17.673-14.327-32-32-32h-64c-17.673 0-32 14.327-32 32v64c0 17.673 14.327 32 32 32zM352 384h64c17.673 0 32-14.327 32-32v-64c0-17.673-14.327-32-32-32h-64c-17.673 0-32 14.327-32 32v64c0 17.673 14.327 32 32 32zM608 768h64c17.673 0 32-14.327 32-32v-64c0-17.673-14.327-32-32-32h-64c-17.673 0-32 14.327-32 32v64c0 17.673 14.327 32 32 32zM608 576h64c17.673 0 32-14.327 32-32v-64c0-17.673-14.327-32-32-32h-64c-17.673 0-32 14.327-32 32v64c0 17.673 14.327 32 32 32zM608 384h64c17.673 0 32-14.327 32-32v-64c0-17.673-14.327-32-32-32h-64c-17.673 0-32 14.327-32 32v64c0 17.673 14.327 32 32 32z" />
<glyph unicode="&#xe902;" glyph-name="rvt-icon-pin" d="M979.2 608l-294.4 294.4c-25.6 25.6-64 25.6-89.6 0l-198.4-192-275.2-121.6c-12.8-12.8-32-25.6-32-51.2-6.4-19.2 0-44.8 19.2-57.6l179.2-179.2-204.8-204.8c-25.6-25.6-25.6-64 0-89.6 12.8-12.8 32-19.2 44.8-19.2s32 6.4 44.8 19.2l204.8 204.8 179.2-179.2c12.8-12.8 25.6-19.2 44.8-19.2 6.4 0 6.4 0 12.8 0 19.2 6.4 38.4 19.2 44.8 38.4l121.6 268.8 198.4 198.4c12.8 12.8 19.2 25.6 19.2 44.8s-12.8 32-19.2 44.8zM684.8 403.2c-6.4-6.4-12.8-12.8-12.8-19.2l-89.6-192-320 320 198.4 89.6c6.4 0 12.8 6.4 19.2 12.8l153.6 153.6 204.8-204.8-153.6-160z" />
<glyph unicode="&#xe903;" glyph-name="rvt-icon-upload" d="M896 0h-768c-44.183 0-80 35.817-80 80v0 112c0 35.346 28.654 64 64 64s64-28.654 64-64v0-64h672v64c0 35.346 28.654 64 64 64s64-28.654 64-64v0-112c0-44.183-35.817-80-80-80v0zM813.44 685.44l-256 256c-11.6 11.693-27.675 18.931-45.44 18.931s-33.84-7.238-45.436-18.927l-256.004-256.004c-11.693-11.6-18.931-27.675-18.931-45.44s7.238-33.84 18.927-45.436l0.004-0.004c11.6-11.693 27.675-18.931 45.44-18.931s33.84 7.238 45.436 18.927l0.004 0.004 146.56 147.2v-421.76c0-35.346 28.654-64 64-64s64 28.654 64 64v0 421.76l146.56-147.2c11.6-11.693 27.675-18.931 45.44-18.931s33.84 7.238 45.436 18.927l0.004 0.004c11.693 11.6 18.931 27.675 18.931 45.44s-7.238 33.84-18.927 45.436l-0.004 0.004z" />
<glyph unicode="&#xe904;" glyph-name="rvt-icon-question-mark" d="M512-64c-282.77 0-512 229.23-512 512s229.23 512 512 512c282.77 0 512-229.23 512-512v0c0-282.77-229.23-512-512-512v0zM512 832c-212.077 0-384-171.923-384-384s171.923-384 384-384c212.077 0 384 171.923 384 384v0c0 212.077-171.923 384-384 384v0zM512 320c-35.346 0-64 28.654-64 64v0 48c0 44.183 35.817 80 80 80v0h40.96c1.173-0.071 2.544-0.112 3.925-0.112 32.306 0 59.435 22.163 67.012 52.114l0.102 0.478c0.666 3.466 1.047 7.453 1.047 11.529 0 35.346-28.654 64-64 64-0.368 0-0.735-0.003-1.102-0.009l0.055 0.001h-128c-35.346 0-64 28.654-64 64s28.654 64 64 64v0h128c0.799 0.012 1.743 0.019 2.689 0.019 106.039 0 192-85.961 192-192 0-11.31-0.978-22.392-2.854-33.166l0.165 1.147c-17.953-91.223-96.923-159.206-191.914-159.999l-0.086-0.001c0-35.346-28.654-64-64-64v0zM512 128c-8.809 0.11-17.153 1.982-24.733 5.28l0.413-0.16c-8.197 3.228-15.215 7.78-21.143 13.462l0.023-0.022c-11.472 11.563-18.561 27.489-18.561 45.070 0 0.13 0 0.26 0.001 0.39v-0.020c0.11 8.809 1.982 17.153 5.28 24.733l-0.16-0.413c3.228 8.197 7.78 15.215 13.462 21.143l-0.022-0.023c11.559 11.451 27.471 18.526 45.034 18.526 4.447 0 8.788-0.454 12.979-1.317l-0.413 0.071c4.541-0.675 8.635-2.020 12.383-3.944l-0.223 0.104c4.394-1.512 8.204-3.462 11.678-5.863l-0.158 0.103 9.6-7.68c5.767-5.843 10.337-12.883 13.304-20.711l0.136-0.409c3.164-7.324 5.004-15.851 5.004-24.808 0-17.523-7.042-33.401-18.451-44.958l0.007 0.007c-6.007-5.458-12.991-9.98-20.636-13.256l-0.484-0.184c-7.167-3.138-15.511-5.010-24.279-5.12h-0.041z" />
<glyph unicode="&#xe905;" glyph-name="rvt-icon-alarm" d="M512 832c-0.747 0.004-1.63 0.007-2.513 0.007-247.424 0-448-200.576-448-448 0-86.932 24.76-168.080 67.613-236.778l-1.1 1.891-60.16-120.96c-3.689-7.838-5.842-17.025-5.842-26.714 0-35.346 28.654-64 64-64 24.27 0 45.384 13.509 56.234 33.418l0.167 0.335 36.48 72.32c77.697-66.519 179.401-107.003 290.56-107.003s212.863 40.484 291.17 107.513l-0.61-0.51 36.48-72.32c11.017-20.244 32.132-33.754 56.402-33.754 35.346 0 64 28.654 64 64 0 9.689-2.153 18.875-6.007 27.106l0.165-0.392-55.040 120.96c41.753 66.807 66.513 147.956 66.513 234.887 0 247.424-200.576 448-448 448-0.884 0-1.767-0.003-2.65-0.008l0.136 0.001zM512 64c-176.731 0-320 143.269-320 320s143.269 320 320 320c176.731 0 320-143.269 320-320v0c0-176.731-143.269-320-320-320v0zM594.56 557.44l-128-128c-11.472-11.563-18.561-27.489-18.561-45.070 0-0.13 0-0.26 0.001-0.39v0.020-192c0-35.346 28.654-64 64-64s64 28.654 64 64v0 165.76l109.44 109.44c11.493 11.572 18.596 27.517 18.596 45.12 0 35.366-28.67 64.036-64.036 64.036-17.763 0-33.836-7.232-45.436-18.912l-0.004-0.004zM109.44 722.56l128 128c11.629 11.629 18.822 27.695 18.822 45.44 0 35.491-28.771 64.262-64.262 64.262-17.745 0-33.811-7.193-45.44-18.822l-128-128c-11.629-11.629-18.822-27.695-18.822-45.44 0-35.491 28.771-64.262 64.262-64.262 17.745 0 33.811 7.193 45.44 18.822v0zM1005.44 813.44l-128 128c-11.118 9.565-25.694 15.389-41.629 15.389-35.346 0-64-28.654-64-64 0-15.936 5.824-30.511 15.46-41.713l-0.071 0.084 128-128c11.118-9.565 25.694-15.389 41.629-15.389 35.346 0 64 28.654 64 64 0 15.936-5.824 30.511-15.46 41.713l0.071-0.084z" />
<glyph unicode="&#xe906;" glyph-name="rvt-icon-sync" d="M891.52 896c-35.346 0-64-28.654-64-64v0-64c-80.837 79.714-191.917 128.943-314.494 128.943-194.325 0-359.753-123.725-421.807-296.697l-0.979-3.126c-2.331-6.368-3.68-13.721-3.68-21.388 0-27.24 17.018-50.505 41.002-59.744l0.438-0.148c6.412-2.366 13.817-3.734 21.542-3.734 27.739 0 51.357 17.648 60.238 42.328l0.14 0.446c45.2 125.456 163.199 213.534 301.77 213.534 104.513 0 197.323-50.103 255.722-127.6l0.588-0.815h-128c-35.346 0-64-28.654-64-64s28.654-64 64-64v0h225.28c1.63-0.148 3.525-0.232 5.44-0.232s3.81 0.084 5.683 0.249l-0.243-0.017h17.92c35.346 0 64 28.654 64 64v0 256c0 0.015 0 0.033 0 0.051 0 35.346-28.654 64-64 64-0.9 0-1.796-0.019-2.688-0.055l0.128 0.004zM896 380.16c-6.412 2.366-13.817 3.734-21.542 3.734-27.739 0-51.357-17.648-60.238-42.328l-0.14-0.446c-45.2-125.456-163.199-213.534-301.77-213.534-104.513 0-197.323 50.103-255.722 127.6l-0.588 0.815h136.96c35.346 0 64 28.654 64 64s-28.654 64-64 64v0h-232.32c-2.693 0.456-5.796 0.717-8.96 0.717s-6.267-0.261-9.288-0.762l0.328 0.045h-3.84c-1.343 0.143-2.902 0.225-4.48 0.225s-3.136-0.082-4.672-0.241l0.192 0.016h-1.92c-30.671-5.106-53.765-31.444-53.765-63.176 0-0.29 0.002-0.579 0.006-0.867v0.044-256c0-35.346 28.654-64 64-64s64 28.654 64 64v0 58.88c80.19-76.364 188.965-123.347 308.714-123.347 193.671 0 358.638 122.892 421.176 294.95l0.99 3.116c2.64 6.746 4.17 14.557 4.17 22.725 0 27.184-16.948 50.409-40.854 59.686l-0.437 0.149z" />
<glyph unicode="&#xe907;" glyph-name="rvt-icon-grid" d="M384 512h-256c-35.346 0-64 28.654-64 64v0 256c0 35.346 28.654 64 64 64v0h256c35.346 0 64-28.654 64-64v0-256c0-35.346-28.654-64-64-64v0zM192 640h128v128h-128zM896 512h-256c-35.346 0-64 28.654-64 64v0 256c0 35.346 28.654 64 64 64v0h256c35.346 0 64-28.654 64-64v0-256c0-35.346-28.654-64-64-64v0zM704 640h128v128h-128zM384 0h-256c-35.346 0-64 28.654-64 64v0 256c0 35.346 28.654 64 64 64v0h256c35.346 0 64-28.654 64-64v0-256c0-35.346-28.654-64-64-64v0zM192 128h128v128h-128zM896 0h-256c-35.346 0-64 28.654-64 64v0 256c0 35.346 28.654 64 64 64v0h256c35.346 0 64-28.654 64-64v0-256c0-35.346-28.654-64-64-64v0zM704 128h128v128h-128z" />
<glyph unicode="&#xe908;" glyph-name="rvt-icon-note" d="M832-64h-640c-2.042-0.257-4.406-0.403-6.803-0.403-31.812 0-57.6 25.788-57.6 57.6 0 2.398 0.146 4.761 0.431 7.082l-0.028-0.278v896c-0.257 2.042-0.403 4.406-0.403 6.803 0 31.812 25.788 57.6 57.6 57.6 2.398 0 4.761-0.146 7.082-0.431l-0.278 0.028h512c0.549 0.019 1.194 0.029 1.841 0.029 17.047 0 32.365-7.405 42.911-19.175l0.048-0.055 128-128c11.824-10.594 19.229-25.912 19.229-42.959 0-0.647-0.011-1.292-0.032-1.935l0.002 0.093v-768c0.257-2.042 0.403-4.406 0.403-6.803 0-31.812-25.788-57.6-57.6-57.6-2.398 0-4.761 0.146-7.082 0.431l0.278-0.028zM256 64h512v678.4l-89.6 89.6h-422.4zM640 576h-256c-2.042-0.257-4.406-0.403-6.803-0.403-31.812 0-57.6 25.788-57.6 57.6 0 2.398 0.146 4.761 0.431 7.082l-0.028-0.278c-0.257 2.042-0.403 4.406-0.403 6.803 0 31.812 25.788 57.6 57.6 57.6 2.398 0 4.761-0.146 7.082-0.431l-0.278 0.028h256c2.042 0.257 4.406 0.403 6.803 0.403 31.812 0 57.6-25.788 57.6-57.6 0-2.398-0.146-4.761-0.431-7.082l0.028 0.278c0.257-2.042 0.403-4.406 0.403-6.803 0-31.812-25.788-57.6-57.6-57.6-2.398 0-4.761 0.146-7.082 0.431l0.278-0.028zM640 384h-256c-2.042-0.257-4.406-0.403-6.803-0.403-31.812 0-57.6 25.788-57.6 57.6 0 2.398 0.146 4.761 0.431 7.082l-0.028-0.278c-0.257 2.042-0.403 4.406-0.403 6.803 0 31.812 25.788 57.6 57.6 57.6 2.398 0 4.761-0.146 7.082-0.431l-0.278 0.028h256c2.042 0.257 4.406 0.403 6.803 0.403 31.812 0 57.6-25.788 57.6-57.6 0-2.398-0.146-4.761-0.431-7.082l0.028 0.278c0.257-2.042 0.403-4.406 0.403-6.803 0-31.812-25.788-57.6-57.6-57.6-2.398 0-4.761 0.146-7.082 0.431l0.278-0.028zM512 192h-128c-2.042-0.257-4.406-0.403-6.803-0.403-31.812 0-57.6 25.788-57.6 57.6 0 2.398 0.146 4.761 0.431 7.082l-0.028-0.278c-0.257 2.042-0.403 4.406-0.403 6.803 0 31.812 25.788 57.6 57.6 57.6 2.398 0 4.761-0.146 7.082-0.431l-0.278 0.028h128c2.042 0.257 4.406 0.403 6.803 0.403 31.812 0 57.6-25.788 57.6-57.6 0-2.398-0.146-4.761-0.431-7.082l0.028 0.278c0.257-2.042 0.403-4.406 0.403-6.803 0-31.812-25.788-57.6-57.6-57.6-2.398 0-4.761 0.146-7.082 0.431l0.278-0.028z" />
<glyph unicode="&#xe909;" glyph-name="rvt-icon-audio-off" d="M896 0c-0.11-0.001-0.24-0.001-0.37-0.001-17.581 0-33.507 7.089-45.074 18.565l-767.996 767.996c-11.629 11.629-18.822 27.695-18.822 45.44 0 35.491 28.771 64.262 64.262 64.262 17.745 0 33.811-7.193 45.44-18.822v0l768-768c11.693-11.6 18.932-27.675 18.932-45.441 0-35.346-28.654-64-64-64-0.131 0-0.262 0-0.392 0.001h0.020zM793.6 800c-8.356 4.281-18.23 6.79-28.689 6.79-35.346 0-64-28.654-64-64 0-27.258 17.041-50.537 41.051-59.762l0.438-0.148c90.999-40.59 153.28-130.266 153.28-234.488 0-62.105-22.115-119.045-58.9-163.374l0.34 0.422 90.88-93.44c60.402 67.549 97.323 157.205 97.323 255.484 0 157.024-94.249 292.035-229.263 351.549l-2.459 0.967zM512 192l-153.6 115.2c-10.563 7.991-23.92 12.8-38.4 12.8h-128v256l-109.44 109.44c-11.472-11.563-18.561-27.489-18.561-45.070 0-0.13 0-0.26 0.001-0.39v0.020-384c0-35.346 28.654-64 64-64v0h170.88l238.72-179.2c10.563-7.991 23.92-12.8 38.4-12.8 35.346 0 64 28.654 64 64v0 94.080l-128 128zM640 576v256c0 35.346-28.654 64-64 64-14.48 0-27.837-4.809-38.561-12.917l0.161 0.117-170.88-128 91.52-91.52 53.76 40.32v-94.080l233.6-233.6c13.748 20.097 21.953 44.931 21.953 71.681 0 70.535-57.053 127.745-127.529 127.999h-0.024z" />
<glyph unicode="&#xe90a;" glyph-name="rvt-icon-lightning-box" d="M768 0h-512c-1.942-0.073-4.224-0.114-6.514-0.114-102.504 0-185.6 83.096-185.6 185.6 0 2.291 0.042 4.572 0.124 6.843l-0.009-0.329v512c-0.073 1.942-0.114 4.224-0.114 6.514 0 102.504 83.096 185.6 185.6 185.6 2.291 0 4.572-0.042 6.843-0.124l-0.329 0.009h64c2.042 0.257 4.406 0.403 6.803 0.403 31.812 0 57.6-25.788 57.6-57.6 0-2.398-0.146-4.761-0.431-7.082l0.028 0.278c0.257-2.042 0.403-4.406 0.403-6.803 0-31.812-25.788-57.6-57.6-57.6-2.398 0-4.761 0.146-7.082 0.431l0.278-0.028h-64c-2.042 0.257-4.406 0.403-6.803 0.403-31.812 0-57.6-25.788-57.6-57.6 0-2.398 0.146-4.761 0.431-7.082l-0.028 0.278v-512c-0.257-2.042-0.403-4.406-0.403-6.803 0-31.812 25.788-57.6 57.6-57.6 2.398 0 4.761 0.146 7.082 0.431l-0.278-0.028h512c2.042-0.257 4.406-0.403 6.803-0.403 31.812 0 57.6 25.788 57.6 57.6 0 2.398-0.146 4.761-0.431 7.082l0.028-0.278v512c0 35.346 28.654 64 64 64s64-28.654 64-64v0-512c0.073-1.942 0.114-4.224 0.114-6.514 0-102.504-83.096-185.6-185.6-185.6-2.291 0-4.572 0.042-6.843 0.124l0.329-0.009zM761.6 665.6c-9.985 22.478-31.932 37.961-57.544 38.399l-0.056 0.001h-89.6l83.2 166.4c3.736 7.422 5.923 16.176 5.923 25.441 0 22.297-12.669 41.635-31.201 51.208l-0.322 0.151c-9.701 7.689-22.118 12.335-35.621 12.335-19.685 0-37.064-9.875-47.453-24.942l-0.126-0.193-256-320c-8.246-9.894-13.251-22.74-13.251-36.755 0-9.978 2.537-19.364 7.002-27.547l-0.151 0.301c9.985-22.478 31.932-37.961 57.544-38.399l0.056-0.001h89.6l-83.2-166.4c-3.736-7.422-5.923-16.176-5.923-25.441 0-22.297 12.669-41.635 31.201-51.208l0.322-0.151 32-12.8c0.97-0.058 2.104-0.092 3.246-0.092 19.921 0 37.481 10.113 47.824 25.486l0.13 0.206 256 320c8.246 9.894 13.251 22.74 13.251 36.755 0 9.978-2.537 19.364-7.002 27.547l0.151-0.301z" />
<glyph unicode="&#xe90b;" glyph-name="rvt-icon-user-add" d="M960 576h-64v64c0 35.346-28.654 64-64 64s-64-28.654-64-64v0-64h-64c-35.346 0-64-28.654-64-64s28.654-64 64-64v0h64v-64c0-35.346 28.654-64 64-64s64 28.654 64 64v0 64h64c35.346 0 64 28.654 64 64s-28.654 64-64 64v0zM384 448c141.385 0 256 114.615 256 256s-114.615 256-256 256c-141.385 0-256-114.615-256-256v0c0-141.385 114.615-256 256-256v0zM384 832c70.692 0 128-57.308 128-128s-57.308-128-128-128c-70.692 0-128 57.308-128 128v0c0 70.692 57.308 128 128 128v0zM512 384h-256c-141.385 0-256-114.615-256-256v0-112c0-44.183 35.817-80 80-80v0h608c44.183 0 80 35.817 80 80v0 112c0 141.385-114.615 256-256 256v0zM640 64h-512v64c0 70.692 57.308 128 128 128v0h256c70.692 0 128-57.308 128-128v0z" />
<glyph unicode="&#xe90c;" glyph-name="rvt-icon-chat" d="M944 960h-864c-44.183 0-80-35.817-80-80v0-608c0-44.183 35.817-80 80-80v0h112v-192c-0.001-0.111-0.001-0.241-0.001-0.372 0-35.346 28.654-64 64-64 17.766 0 33.841 7.239 45.437 18.928l0.004 0.004 236.8 237.44h405.76c44.183 0 80 35.817 80 80v0 608c0 44.183-35.817 80-80 80v0zM896 320h-384c-0.11 0.001-0.24 0.001-0.37 0.001-17.581 0-33.507-7.089-45.074-18.565l0.004 0.004-146.56-147.2v101.76c0 35.346-28.654 64-64 64v0h-128v512h768zM384 576c0-35.346-28.654-64-64-64s-64 28.654-64 64c0 35.346 28.654 64 64 64s64-28.654 64-64zM576 576c0-35.346-28.654-64-64-64s-64 28.654-64 64c0 35.346 28.654 64 64 64s64-28.654 64-64zM768 576c0-35.346-28.654-64-64-64s-64 28.654-64 64c0 35.346 28.654 64 64 64s64-28.654 64-64z" />
<glyph unicode="&#xe90d;" glyph-name="rvt-icon-settings" d="M448 0c0-35.346 28.654-64 64-64s64 28.654 64 64v0 512h-128zM128 0c0-35.346 28.654-64 64-64s64 28.654 64 64v0 256h-128zM256 558.080v337.92c0 35.346-28.654 64-64 64s-64-28.654-64-64v0-337.92c-38.53-22.543-64-63.723-64-110.851 0-70.692 57.308-128 128-128s128 57.308 128 128c0 47.128-25.47 88.308-63.396 110.524l-0.604 0.327zM768 0c0-35.346 28.654-64 64-64s64 28.654 64 64v0 192h-128zM576 814.080v81.92c0 35.346-28.654 64-64 64s-64-28.654-64-64v0-81.92c-38.53-22.543-64-63.723-64-110.851 0-70.692 57.308-128 128-128s128 57.308 128 128c0 47.128-25.47 88.308-63.396 110.524l-0.604 0.327zM896 494.080v401.92c0 35.346-28.654 64-64 64s-64-28.654-64-64v0-401.92c-38.53-22.543-64-63.723-64-110.851 0-70.692 57.308-128 128-128s128 57.308 128 128c0 47.128-25.47 88.308-63.396 110.524l-0.604 0.327z" />
<glyph unicode="&#xe90e;" glyph-name="rvt-icon-user-remove" d="M960 448h-256c-35.346 0-64 28.654-64 64s28.654 64 64 64v0h256c35.346 0 64-28.654 64-64s-28.654-64-64-64v0zM384 448c-141.385 0-256 114.615-256 256s114.615 256 256 256c141.385 0 256-114.615 256-256v0c0-141.385-114.615-256-256-256v0zM384 832c-70.692 0-128-57.308-128-128s57.308-128 128-128c70.692 0 128 57.308 128 128v0c0 70.692-57.308 128-128 128v0zM688-64h-608c-44.183 0-80 35.817-80 80v0 112c0 141.385 114.615 256 256 256v0h256c141.385 0 256-114.615 256-256v0-112c0-44.183-35.817-80-80-80v0zM128 64h512v64c0 70.692-57.308 128-128 128v0h-256c-70.692 0-128-57.308-128-128v0z" />
<glyph unicode="&#xe90f;" glyph-name="rvt-icon-check-all" d="M960 640h-192c-35.346 0-64 28.654-64 64s28.654 64 64 64v0h192c35.346 0 64-28.654 64-64s-28.654-64-64-64v0zM960 384h-320c-35.346 0-64 28.654-64 64s28.654 64 64 64v0h320c35.346 0 64-28.654 64-64s-28.654-64-64-64v0zM960 128h-448c-35.346 0-64 28.654-64 64s28.654 64 64 64v0h448c35.346 0 64-28.654 64-64s-28.654-64-64-64v0zM224 128c-15.083 0.090-28.913 5.384-39.802 14.175l0.122-0.095-160 128c-14.682 11.827-23.996 29.804-23.996 49.957 0 15.032 5.182 28.853 13.857 39.775l-0.101-0.132c11.827 14.682 29.804 23.996 49.957 23.996 15.032 0 28.853-5.182 39.775-13.857l-0.132 0.101 101.76-80.64 250.88 448c11.296 19.393 31.99 32.22 55.68 32.22 35.468 0 64.22-28.752 64.22-64.22 0-11.778-3.171-22.815-8.705-32.305l0.164 0.305-288-512c-9.194-16.068-24.732-27.616-43.112-31.292l-0.408-0.068z" />
<glyph unicode="&#xe910;" glyph-name="rvt-icon-link-external" d="M688 0h-544c-44.183 0-80 35.817-80 80v0 544c0 44.183 35.817 80 80 80v0h240c35.346 0 64-28.654 64-64s-28.654-64-64-64v0h-192v-448h448v192c0 35.346 28.654 64 64 64s64-28.654 64-64v0-240c0-44.183-35.817-80-80-80v0zM941.44 877.44c-11.614 11.784-27.75 19.084-45.591 19.084-2.88 0-5.716-0.19-8.495-0.559l0.326 0.035h-311.68c-35.346 0-64-28.654-64-64s28.654-64 64-64v0h165.76l-275.2-274.56c-11.629-11.629-18.822-27.695-18.822-45.44 0-35.491 28.771-64.262 64.262-64.262 17.745 0 33.811 7.193 45.44 18.822v0l274.56 275.2v-165.76c0-35.346 28.654-64 64-64s64 28.654 64 64v0 304c0.063 1.147 0.099 2.489 0.099 3.84s-0.036 2.693-0.106 4.026l0.008-0.186c0.333 2.453 0.524 5.289 0.524 8.169 0 17.841-7.3 33.976-19.076 45.583l-0.008 0.008z" />
<glyph unicode="&#xe911;" glyph-name="rvt-icon-clipboard" d="M896 896h-128c0 35.346-28.654 64-64 64v0h-384c-35.346 0-64-28.654-64-64v0h-128c-35.346 0-64-28.654-64-64v0-832c0-35.346 28.654-64 64-64v0h768c35.346 0 64 28.654 64 64v0 832c0 35.346-28.654 64-64 64v0zM384 832h256v-64h-256zM832 64h-640v704h64v-64c0-35.346 28.654-64 64-64v0h384c35.346 0 64 28.654 64 64v0 64h64zM640 512h-256c-35.346 0-64-28.654-64-64s28.654-64 64-64v0h256c35.346 0 64 28.654 64 64s-28.654 64-64 64v0zM640 320h-256c-35.346 0-64-28.654-64-64s28.654-64 64-64v0h256c35.346 0 64 28.654 64 64s-28.654 64-64 64v0z" />
<glyph unicode="&#xe912;" glyph-name="rvt-icon-audio-on" d="M768 448c0 70.692-57.308 128-128 128v0 256c0 35.346-28.654 64-64 64-14.48 0-27.837-4.809-38.561-12.917l0.161 0.117-238.72-179.2h-170.88c-35.346 0-64-28.654-64-64v0-384c0-35.346 28.654-64 64-64v0h170.88l238.72-179.2c10.563-7.991 23.92-12.8 38.4-12.8 35.346 0 64 28.654 64 64v0 256c70.692 0 128 57.308 128 128v0zM512 192l-153.6 115.2c-10.563 7.991-23.92 12.8-38.4 12.8h-128v256h128c14.48 0 27.837 4.809 38.561 12.917l-0.161-0.117 153.6 115.2zM793.6 800c-8.356 4.281-18.23 6.79-28.689 6.79-35.346 0-64-28.654-64-64 0-27.258 17.041-50.537 41.051-59.762l0.438-0.148c91.886-40.221 154.921-130.349 154.921-235.2s-63.035-194.979-153.276-234.557l-1.645-0.643c-21.9-10.478-36.758-32.46-36.758-57.913 0-35.346 28.654-64 64-64 8.15 0 15.945 1.524 23.115 4.301l-0.437-0.149c138.051 60.237 232.793 195.543 232.793 352.976 0 155.716-92.685 289.784-225.896 350.045l-2.416 0.978z" />
<glyph unicode="&#xe913;" glyph-name="rvt-icon-chevrons-right" d="M192 76.8c-0.031 0-0.067 0-0.104 0-35.346 0-64 28.654-64 64 0 15.628 5.601 29.947 14.906 41.060l-0.082-0.1 222.080 266.24-222.080 266.24c-9.208 11.018-14.8 25.336-14.8 40.96 0 35.39 28.69 64.080 64.080 64.080 19.767 0 37.443-8.95 49.197-23.018l0.083-0.102 247.040-296.96c11.691-13.817 18.798-31.839 18.798-51.52s-7.107-37.703-18.895-51.638l0.097 0.118-247.040-296.32c-11.822-14.122-29.457-23.040-49.176-23.040-0.037 0-0.073 0-0.11 0h0.006zM390.4 417.28v0zM390.4 481.28v0zM576 76.8c-0.031 0-0.067 0-0.104 0-35.346 0-64 28.654-64 64 0 15.628 5.601 29.947 14.906 41.060l-0.082-0.1 222.080 266.24-222.080 266.24c-9.208 11.018-14.8 25.336-14.8 40.96 0 35.39 28.69 64.080 64.080 64.080 19.767 0 37.443-8.95 49.197-23.018l0.083-0.102 247.040-296.96c11.691-13.817 18.798-31.839 18.798-51.52s-7.107-37.703-18.895-51.638l0.097 0.118-247.040-296.32c-11.822-14.122-29.457-23.040-49.176-23.040-0.037 0-0.073 0-0.11 0h0.006zM774.4 417.28v0zM774.4 481.28v0z" />
<glyph unicode="&#xe914;" glyph-name="rvt-icon-chevrons-left" d="M832 76.8c-0.031 0-0.067 0-0.104 0-19.719 0-37.354 8.918-49.094 22.94l-0.082 0.1-247.040 296.96c-11.691 13.817-18.798 31.839-18.798 51.52s7.107 37.703 18.895 51.638l-0.097-0.118 247.040 296.96c11.837 14.17 29.513 23.12 49.28 23.12 35.39 0 64.080-28.69 64.080-64.080 0-15.624-5.591-29.942-14.883-41.062l0.083 0.102-222.080-266.88 222.080-266.24c9.223-11.013 14.824-25.332 14.824-40.96 0-35.346-28.654-64-64-64-0.037 0-0.073 0-0.11 0h0.006zM634.24 417.92v0zM634.24 481.92v0zM448 76.8c-0.031 0-0.067 0-0.104 0-19.719 0-37.354 8.918-49.094 22.94l-0.082 0.1-247.040 296.96c-11.691 13.817-18.798 31.839-18.798 51.52s7.107 37.703 18.895 51.638l-0.097-0.118 247.040 296.32c11.837 14.17 29.513 23.12 49.28 23.12 35.39 0 64.080-28.69 64.080-64.080 0-15.624-5.591-29.942-14.883-41.062l0.083 0.102-222.080-266.24 222.080-266.24c9.223-11.013 14.824-25.332 14.824-40.96 0-35.346-28.654-64-64-64-0.037 0-0.073 0-0.11 0h0.006zM250.24 417.92v0zM250.24 481.92v0z" />
<glyph unicode="&#xe915;" glyph-name="rvt-icon-list" d="M832 704h-448c-35.346 0-64 28.654-64 64s28.654 64 64 64v0h448c35.346 0 64-28.654 64-64s-28.654-64-64-64v0zM832 384h-448c-35.346 0-64 28.654-64 64s28.654 64 64 64v0h448c35.346 0 64-28.654 64-64s-28.654-64-64-64v0zM832 64h-448c-35.346 0-64 28.654-64 64s28.654 64 64 64v0h448c35.346 0 64-28.654 64-64s-28.654-64-64-64v0zM256 768c0-35.346-28.654-64-64-64s-64 28.654-64 64c0 35.346 28.654 64 64 64s64-28.654 64-64zM256 448c0-35.346-28.654-64-64-64s-64 28.654-64 64c0 35.346 28.654 64 64 64s64-28.654 64-64zM256 128c0-35.346-28.654-64-64-64s-64 28.654-64 64c0 35.346 28.654 64 64 64s64-28.654 64-64z" />
<glyph unicode="&#xe916;" glyph-name="rvt-icon-transfer-alternate" d="M402.56 301.44l-82.56-83.2v613.76c0 35.346-28.654 64-64 64s-64-28.654-64-64v0-613.76l-82.56 83.2c-11.629 11.629-27.695 18.822-45.44 18.822-35.491 0-64.262-28.771-64.262-64.262 0-17.745 7.193-33.811 18.822-45.44l192-192c11.6-11.693 27.675-18.931 45.44-18.931s33.84 7.238 45.436 18.927l192.004 192.004c9.565 11.118 15.389 25.694 15.389 41.629 0 35.346-28.654 64-64 64-15.936 0-30.511-5.824-41.713-15.46l0.084 0.071zM1005.44 685.44l-192 192c-11.6 11.693-27.675 18.931-45.44 18.931s-33.84-7.238-45.436-18.927l-192.004-192.004c-11.629-11.629-18.822-27.695-18.822-45.44 0-35.491 28.771-64.262 64.262-64.262 17.745 0 33.811 7.193 45.44 18.822v0l82.56 83.2v-613.76c0-35.346 28.654-64 64-64s64 28.654 64 64v0 613.76l82.56-82.56c11.118-9.565 25.694-15.389 41.629-15.389 35.346 0 64 28.654 64 64 0 15.936-5.824 30.511-15.46 41.713l0.071-0.084z" />
<glyph unicode="&#xe917;" glyph-name="rvt-icon-users" d="M320 640c35.346 0 64-28.654 64-64s-28.654-64-64-64c-35.346 0-64 28.654-64 64v0c0 35.346 28.654 64 64 64v0zM320 768c-106.039 0-192-85.961-192-192s85.961-192 192-192c106.039 0 192 85.961 192 192v0c0 106.039-85.961 192-192 192v0zM563.2-64h-486.4c-42.415 0-76.8 34.385-76.8 76.8v0 89.6c0 120.177 97.423 217.6 217.6 217.6v0h204.8c120.177 0 217.6-97.423 217.6-217.6v0-89.6c0-42.415-34.385-76.8-76.8-76.8v0zM128 64h384v38.4c0 49.485-40.115 89.6-89.6 89.6v0h-204.8c-49.485 0-89.6-40.115-89.6-89.6v0zM704 832c35.346 0 64-28.654 64-64s-28.654-64-64-64c-35.346 0-64 28.654-64 64v0c0 35.346 28.654 64 64 64v0zM704 960c-106.039 0-192-85.961-192-192s85.961-192 192-192c106.039 0 192 85.961 192 192v0c0 106.039-85.961 192-192 192v0zM947.2 128h-179.2c-35.346 0-64 28.654-64 64s28.654 64 64 64v0h128v38.4c0 49.485-40.115 89.6-89.6 89.6v0h-166.4c-35.346 0-64 28.654-64 64s28.654 64 64 64v0h166.4c120.177 0 217.6-97.423 217.6-217.6v-89.6c0-42.415-34.385-76.8-76.8-76.8v0z" />
<glyph unicode="&#xe918;" glyph-name="rvt-icon-map-pin" d="M512 960c-247.424 0-448-200.576-448-448v0c0-236.16 366.72-529.92 408.32-562.56 10.74-8.439 24.455-13.534 39.36-13.534s28.62 5.095 39.498 13.639l-0.138-0.105c42.24 32.64 408.96 326.4 408.96 562.56 0 247.424-200.576 448-448 448v0zM512 82.56c-137.6 115.84-320 309.76-320 429.44 0 176.731 143.269 320 320 320s320-143.269 320-320v0c0-119.68-182.4-313.6-320-429.44zM512 320c-106.039 0-192 85.961-192 192s85.961 192 192 192c106.039 0 192-85.961 192-192v0c0-106.039-85.961-192-192-192v0zM512 576c-35.346 0-64-28.654-64-64s28.654-64 64-64c35.346 0 64 28.654 64 64v0c0 35.346-28.654 64-64 64v0z" />
<glyph unicode="&#xe919;" glyph-name="rvt-icon-calendar" d="M786.56 832h-18.56v64c0 35.346-28.654 64-64 64s-64-28.654-64-64v0-64h-256v64c0 35.346-28.654 64-64 64s-64-28.654-64-64v0-64h-18.56c-96.329-2.486-173.47-81.167-173.47-177.864 0-1.145 0.011-2.287 0.032-3.427l-0.003 0.171v-469.12c-0.027-1.16-0.043-2.526-0.043-3.895 0-96.702 77.148-175.386 173.253-177.86l0.229-0.005h548.48c96.61 2.135 174.11 80.957 174.11 177.879 0 1.14-0.011 2.277-0.032 3.411l0.003-0.17v469.76c0.019 0.969 0.030 2.111 0.030 3.256 0 96.698-77.141 175.378-173.24 177.86l-0.23 0.005zM237.44 704h18.56v-64h128v64h256v-64h128v64h18.56c25.627-2.316 45.555-23.695 45.555-49.729 0-1.193-0.042-2.377-0.124-3.549l0.009 0.158v-138.88h-640v138.88c-0.073 1.014-0.115 2.198-0.115 3.391 0 26.034 19.928 47.413 45.362 49.715l0.193 0.014zM785.92 128h-548.48c-25.627 2.316-45.555 23.695-45.555 49.729 0 1.193 0.042 2.377 0.124 3.549l-0.009-0.158v202.88h640v-202.88c0.073-1.014 0.115-2.198 0.115-3.391 0-26.034-19.928-47.413-45.362-49.715l-0.193-0.014z" />
<glyph unicode="&#xe91a;" glyph-name="rvt-icon-download" d="M912 256c-35.346 0-64-28.654-64-64v0-64h-672v64c0 35.346-28.654 64-64 64s-64-28.654-64-64v0-112c0-44.183 35.817-80 80-80v0h768c44.183 0 80 35.817 80 80v0 112c0 35.346-28.654 64-64 64v0zM466.56 274.56c11.568-11.501 27.514-18.611 45.12-18.611s33.552 7.109 45.123 18.614l255.997 255.997c9.565 11.118 15.389 25.694 15.389 41.629 0 35.346-28.654 64-64 64-15.936 0-30.511-5.824-41.713-15.46l0.084 0.071-146.56-146.56v421.76c0 35.346-28.654 64-64 64s-64-28.654-64-64v0-421.76l-146.56 147.2c-11.629 11.629-27.695 18.822-45.44 18.822-35.491 0-64.262-28.771-64.262-64.262 0-17.745 7.193-33.811 18.822-45.44v0z" />
<glyph unicode="&#xe91b;" glyph-name="rvt-icon-trash" d="M896 704h-192v128c0 35.346-28.654 64-64 64v0h-256c-35.346 0-64-28.654-64-64v0-128h-192c-35.346 0-64-28.654-64-64s28.654-64 64-64v0h64v-512c0-35.346 28.654-64 64-64v0h512c35.346 0 64 28.654 64 64v0 512h64c35.346 0 64 28.654 64 64s-28.654 64-64 64v0zM448 768h128v-64h-128zM704 128h-384v448h384zM533.12 448v-192c0-35.346 28.654-64 64-64s64 28.654 64 64v0 192c0 35.346-28.654 64-64 64s-64-28.654-64-64v0zM426.88 512c-35.346 0-64-28.654-64-64v0-192c0-35.346 28.654-64 64-64s64 28.654 64 64v0 192c0 35.346-28.654 64-64 64v0z" />
<glyph unicode="&#xe91c;" glyph-name="rvt-icon-printer" d="M832 448c0-35.346-28.654-64-64-64s-64 28.654-64 64c0 35.346 28.654 64 64 64s64-28.654 64-64zM960 704h-128v192c0 35.346-28.654 64-64 64v0h-512c-35.346 0-64-28.654-64-64v0-192h-128c-35.346 0-64-28.654-64-64v0-448c0-35.346 28.654-64 64-64v0h128v-128c0-35.346 28.654-64 64-64v0h512c35.346 0 64 28.654 64 64v0 128h128c35.346 0 64 28.654 64 64v0 448c0 35.346-28.654 64-64 64v0zM320 832h384v-128h-384zM704 64h-384v128h384zM896 256h-64c0 35.346-28.654 64-64 64v0h-512c-35.346 0-64-28.654-64-64v0h-64v320h768z" />
<glyph unicode="&#xe91d;" glyph-name="rvt-icon-transfer" d="M128 640h613.76l-83.2-82.56c-13.73-11.808-22.371-29.2-22.371-48.611 0-35.346 28.654-64 64-64 19.411 0 36.803 8.641 48.54 22.287l0.071 0.084 192 192c11.693 11.6 18.931 27.675 18.931 45.44s-7.238 33.84-18.927 45.436l-192.004 192.004c-11.118 9.565-25.694 15.389-41.629 15.389-35.346 0-64-28.654-64-64 0-15.936 5.824-30.511 15.46-41.713l-0.071 0.084 83.2-83.84h-613.76c-35.346 0-64-28.654-64-64s28.654-64 64-64v0zM896 256h-613.76l83.2 82.56c11.629 11.629 18.822 27.695 18.822 45.44 0 35.491-28.771 64.262-64.262 64.262-17.745 0-33.811-7.193-45.44-18.822l-192-192c-11.693-11.6-18.931-27.675-18.931-45.44s7.238-33.84 18.927-45.436l192.004-192.004c11.118-9.565 25.694-15.389 41.629-15.389 35.346 0 64 28.654 64 64 0 15.936-5.824 30.511-15.46 41.713l0.071-0.084-82.56 83.2h613.76c35.346 0 64 28.654 64 64s-28.654 64-64 64v0z" />
<glyph unicode="&#xe91e;" glyph-name="rvt-icon-close-circle" d="M512 960c-282.77 0-512-229.23-512-512s229.23-512 512-512c282.77 0 512 229.23 512 512v0c0 282.77-229.23 512-512 512v0zM512 64c-212.077 0-384 171.923-384 384s171.923 384 384 384c212.077 0 384-171.923 384-384v0c0-212.077-171.923-384-384-384v0zM693.12 629.12c-11.568 11.501-27.514 18.611-45.12 18.611s-33.552-7.109-45.123-18.614l-90.877-90.877-90.24 90.88c-11.629 11.629-27.695 18.822-45.44 18.822-35.491 0-64.262-28.771-64.262-64.262 0-17.745 7.193-33.811 18.822-45.44v0l90.88-90.24-90.88-90.24c-13.73-11.808-22.371-29.2-22.371-48.611 0-35.346 28.654-64 64-64 19.411 0 36.803 8.641 48.54 22.287l0.071 0.084 90.88 90.24 90.24-90.24c11.118-9.565 25.694-15.389 41.629-15.389 35.346 0 64 28.654 64 64 0 15.936-5.824 30.511-15.46 41.713l0.071-0.084-90.24 90.24 90.24 90.24c11.885 11.63 19.253 27.833 19.253 45.757 0 17.607-7.11 33.554-18.616 45.126l0.003-0.003z" />
<glyph unicode="&#xe91f;" glyph-name="rvt-icon-save" d="M666.24 896h-522.24c-44.183 0-80-35.817-80-80v0-736c0-44.183 35.817-80 80-80v0h736c44.183 0 80 35.817 80 80v0 522.24zM640 128h-256v128h256zM832 128h-64v176c0 44.183-35.817 80-80 80v0h-352c-44.183 0-80-35.817-80-80v0-176h-64v640h128v-176c0-44.183 35.817-80 80-80v0h176c35.346 0 64 28.654 64 64s-28.654 64-64 64v0h-128v128h165.76l218.24-218.24z" />
<glyph unicode="&#xe920;" glyph-name="rvt-icon-user" d="M512 448c-141.385 0-256 114.615-256 256s114.615 256 256 256c141.385 0 256-114.615 256-256v0c0-141.385-114.615-256-256-256v0zM512 832c-70.692 0-128-57.308-128-128s57.308-128 128-128c70.692 0 128 57.308 128 128v0c0 70.692-57.308 128-128 128v0zM816-64h-608c-44.183 0-80 35.817-80 80v0 112c0 141.385 114.615 256 256 256v0h256c141.385 0 256-114.615 256-256v0-112c0-44.183-35.817-80-80-80v0zM256 64h512v64c0 70.692-57.308 128-128 128v0h-256c-70.692 0-128-57.308-128-128v0z" />
<glyph unicode="&#xe921;" glyph-name="rvt-icon-clock" d="M512-64c-282.77 0-512 229.23-512 512s229.23 512 512 512c282.77 0 512-229.23 512-512v0c0-282.77-229.23-512-512-512v0zM512 832c-212.077 0-384-171.923-384-384s171.923-384 384-384c212.077 0 384 171.923 384 384v0c0 212.077-171.923 384-384 384v0zM739.2 373.12l-163.2 109.44v221.44c0 35.346-28.654 64-64 64s-64-28.654-64-64v0-256c-0.044-0.86-0.069-1.867-0.069-2.88s0.025-2.020 0.075-3.021l-0.006 0.141c0.856-8.785 3.362-16.816 7.208-24.025l-0.168 0.345c1.974-3.909 4.101-7.264 6.511-10.389l-0.111 0.149c2.72-3.305 5.655-6.24 8.85-8.872l0.11-0.088 4.48-4.48 192-128c10.576-8.023 23.959-12.853 38.47-12.853 35.346 0 64 28.654 64 64 0 23.332-12.485 43.748-31.14 54.931l-0.291 0.161z" />
<glyph unicode="&#xe922;" glyph-name="rvt-icon-check-circle" d="M512-64c-282.77 0-512 229.23-512 512s229.23 512 512 512c282.77 0 512-229.23 512-512v0c0-282.77-229.23-512-512-512v0zM512 832c-212.077 0-384-171.923-384-384s171.923-384 384-384c212.077 0 384 171.923 384 384v0c0 212.077-171.923 384-384 384v0zM448 199.68c-22.034 0.141-41.933 9.169-56.314 23.674l-115.206 115.206c-8.923 10.914-14.33 25.006-14.33 40.36 0 35.346 28.654 64 64 64 14.874 0 28.563-5.074 39.43-13.586l-0.14 0.106 77.44-77.44 211.2 264.32c11.81 13.771 29.228 22.44 48.67 22.44 35.346 0 64-28.654 64-64 0-14.498-4.821-27.87-12.947-38.601l0.116 0.16-241.92-306.56c-13.755-17.209-34.217-28.56-57.363-30.068l-0.237-0.012zM410.24 309.76v0z" />
<glyph unicode="&#xe923;" glyph-name="rvt-icon-code" d="M320 64c-0.065 0-0.141 0-0.218 0-20.010 0-37.875 9.183-49.611 23.565l-0.091 0.115-256 320c-8.747 10.853-14.040 24.808-14.040 40s5.293 29.147 14.136 40.123l-0.096-0.123 256 320c11.81 13.771 29.228 22.44 48.67 22.44 35.346 0 64-28.654 64-64 0-14.498-4.821-27.87-12.947-38.601l0.116 0.16-224-279.68 224-280.32c8.592-10.797 13.786-24.632 13.786-39.681 0-35.243-28.486-63.832-63.69-63.999h-0.016zM704 64c-35.22 0.167-63.706 28.756-63.706 63.999 0 15.048 5.194 28.884 13.886 39.811l-0.1-0.131 224 280.32-224 279.68c-8.010 10.571-12.83 23.943-12.83 38.44 0 35.346 28.654 64 64 64 19.443 0 36.861-8.67 48.598-22.355l0.072-0.086 256-320c8.747-10.853 14.040-24.808 14.040-40s-5.293-29.147-14.136-40.123l0.096 0.123-256-320c-11.827-14.497-29.692-23.68-49.702-23.68-0.077 0-0.153 0-0.229 0h0.012z" />
<glyph unicode="&#xe924;" glyph-name="rvt-icon-check-circle-breakout" d="M512-64c-282.328 0.584-510.973 229.59-510.973 511.999 0 282.77 229.23 512 512 512 51.884 0 101.965-7.717 149.159-22.067l-3.626 0.948c26.731-8.119 45.85-32.547 45.85-61.44 0-35.396-28.694-64.090-64.090-64.090-6.503 0-12.78 0.969-18.694 2.769l0.454-0.119c-32.947 10.226-70.826 16.116-110.080 16.116-212.077 0-384-171.923-384-384s171.923-384 384-384c212.036 0 383.934 171.856 384 383.877v0.007c0 35.346 28.654 64 64 64s64-28.654 64-64v0c0-282.77-229.23-512-512-512v0zM508.8 199.040c-18.095 0.049-34.779 6.051-48.207 16.149l0.207-0.149-243.2 181.76c-15.614 11.8-25.6 30.334-25.6 51.2 0 35.346 28.654 64 64 64 14.48 0 27.837-4.809 38.561-12.917l-0.161 0.117 202.88-152.32 410.24 585.6c11.744 16.595 30.862 27.297 52.48 27.297 35.4 0 64.097-28.697 64.097-64.097 0-13.782-4.35-26.548-11.751-37l0.134 0.2-436.48-625.92c-12.282-17.466-31.011-29.686-52.658-33.218l-0.462-0.062zM469.12 306.56v0z" />
<glyph unicode="&#xe925;" glyph-name="rvt-icon-user-add-solid" d="M608 704c0-123.712-100.288-224-224-224s-224 100.288-224 224c0 123.712 100.288 224 224 224s224-100.288 224-224zM512 384h-256c-141.385 0-256-114.615-256-256v0-128c0-35.346 28.654-64 64-64v0h640c35.346 0 64 28.654 64 64v0 128c0 141.385-114.615 256-256 256v0zM960 576h-64v64c0 35.346-28.654 64-64 64s-64-28.654-64-64v0-64h-64c-35.346 0-64-28.654-64-64s28.654-64 64-64v0h64v-64c0-35.346 28.654-64 64-64s64 28.654 64 64v0 64h64c35.346 0 64 28.654 64 64s-28.654 64-64 64v0z" />
<glyph unicode="&#xe926;" glyph-name="rvt-icon-phone" d="M1024 140.8c0-113.108-91.692-204.8-204.8-204.8v0c-452.432 0-819.2 366.768-819.2 819.2v0c0 113.108 91.692 204.8 204.8 204.8v0c5.179 0.496 11.196 0.779 17.28 0.779s12.101-0.283 18.041-0.836l-0.761 0.057c12.857-2.127 24.264-5.242 35.17-9.376l-1.25 0.416 76.8-337.28-110.72-57.6c62.702-177.917 200.324-315.539 373.963-376.922l4.277-1.318 58.24 111.36 336.64-78.080c3.718-9.656 6.833-21.063 8.812-32.855l0.148-1.065c1.668-9.506 2.622-20.451 2.622-31.62 0-1.709-0.022-3.413-0.067-5.111l0.005 0.251z" />
<glyph unicode="&#xe927;" glyph-name="rvt-icon-user-remove-solid" d="M608 704c0-123.712-100.288-224-224-224s-224 100.288-224 224c0 123.712 100.288 224 224 224s224-100.288 224-224zM704-64h-640c-35.346 0-64 28.654-64 64v0 128c0 141.385 114.615 256 256 256v0h256c141.385 0 256-114.615 256-256v0-128c0-35.346-28.654-64-64-64v0zM960 448h-256c-35.346 0-64 28.654-64 64s28.654 64 64 64v0h256c35.346 0 64-28.654 64-64s-28.654-64-64-64v0z" />
<glyph unicode="&#xe928;" glyph-name="rvt-icon-lock-open" d="M768 960c-141.385 0-256-114.615-256-256v0-128h-432c-44.183 0-80-35.817-80-80v0-480c0-44.183 35.817-80 80-80v0h608c44.183 0 80 35.817 80 80v0 480c0 44.183-35.817 80-80 80v0h-48v128c0 70.692 57.308 128 128 128s128-57.308 128-128v0-192c0-35.346 28.654-64 64-64s64 28.654 64 64v0 192c0 141.385-114.615 256-256 256v0zM640 64h-512v384h512z" />
<glyph unicode="&#xe929;" glyph-name="rvt-icon-envelope" d="M864 768h-704c-53.019 0-96-42.981-96-96v0-512c0-53.019 42.981-96 96-96v0h704c53.019 0 96 42.981 96 96v0 512c0 53.019-42.981 96-96 96v0zM730.24 640l-218.24-177.28-218.24 177.28zM192 192v365.44l263.040-213.12 7.68-5.12c14.072-8.552 31.085-13.614 49.28-13.614s35.208 5.062 49.707 13.854l-0.427-0.24 270.72 218.24v-365.44z" />
<glyph unicode="&#xe92a;" glyph-name="rvt-icon-plus-circle" d="M704 512h-128v128c0 35.346-28.654 64-64 64s-64-28.654-64-64v0-128h-128c-35.346 0-64-28.654-64-64s28.654-64 64-64v0h128v-128c0-35.346 28.654-64 64-64s64 28.654 64 64v0 128h128c35.346 0 64 28.654 64 64s-28.654 64-64 64v0zM512 960c-282.77 0-512-229.23-512-512s229.23-512 512-512c282.77 0 512 229.23 512 512v0c0 282.77-229.23 512-512 512v0zM512 64c-212.077 0-384 171.923-384 384s171.923 384 384 384c212.077 0 384-171.923 384-384v0c0-212.077-171.923-384-384-384v0z" />
<glyph unicode="&#xe92b;" glyph-name="rvt-icon-lock-closed" d="M816 576h-48v128c0 141.385-114.615 256-256 256s-256-114.615-256-256v0-128h-48c-44.183 0-80-35.817-80-80v0-480c0-44.183 35.817-80 80-80v0h608c44.183 0 80 35.817 80 80v0 480c0 44.183-35.817 80-80 80v0zM384 704c0 70.692 57.308 128 128 128s128-57.308 128-128v0-128h-256zM768 64h-512v384h512z" />
<glyph unicode="&#xe92c;" glyph-name="rvt-icon-copy" d="M256 305.28h-133.12v526.72h389.12v-64h128v64c0 70.692-57.308 128-128 128v0h-389.12c-70.692 0-128-57.308-128-128v0-526.72c0-70.692 57.308-128 128-128v0h133.12zM896-64h-384c-70.692 0-128 57.308-128 128v0 448c0 70.692 57.308 128 128 128v0h384c70.692 0 128-57.308 128-128v0-448c0-70.692-57.308-128-128-128v0zM512 512v-448h384v448z" />
<glyph unicode="&#xe92d;" glyph-name="rvt-icon-info-circle" d="M512-64c-282.77 0-512 229.23-512 512s229.23 512 512 512c282.77 0 512-229.23 512-512v0c0-282.77-229.23-512-512-512v0zM512 832c-212.077 0-384-171.923-384-384s171.923-384 384-384c212.077 0 384 171.923 384 384v0c0 212.077-171.923 384-384 384v0zM512 192c-35.346 0-64 28.654-64 64v0 192c0 35.346 28.654 64 64 64s64-28.654 64-64v0-192c0-35.346-28.654-64-64-64v0zM576 640c0-35.346-28.654-64-64-64s-64 28.654-64 64c0 35.346 28.654 64 64 64s64-28.654 64-64z" />
<glyph unicode="&#xe92e;" glyph-name="rvt-icon-exclamation" d="M512-64c-282.77 0-512 229.23-512 512s229.23 512 512 512c282.77 0 512-229.23 512-512v0c0-282.77-229.23-512-512-512v0zM512 832c-212.077 0-384-171.923-384-384s171.923-384 384-384c212.077 0 384 171.923 384 384v0c0 212.077-171.923 384-384 384v0zM512 384c-35.346 0-64 28.654-64 64v0 192c0 35.346 28.654 64 64 64s64-28.654 64-64v0-192c0-35.346-28.654-64-64-64v0zM576 256c0-35.346-28.654-64-64-64s-64 28.654-64 64c0 35.346 28.654 64 64 64s64-28.654 64-64z" />
<glyph unicode="&#xe92f;" glyph-name="rvt-icon-redo" d="M832 896c-35.346 0-64-28.654-64-64v0-77.44c-73.844 62.489-170.16 100.479-275.349 100.479-236.113 0-427.52-191.407-427.52-427.52 0-235.715 190.763-426.875 426.327-427.518h0.062c35.346 0 64 28.654 64 64s-28.654 64-64 64v0c-164.826 0.784-298.14 134.582-298.14 299.517 0 165.42 134.1 299.52 299.52 299.52 82.366 0 156.967-33.247 211.115-87.052l-0.016 0.016h-128c-35.346 0-64-28.654-64-64s28.654-64 64-64v0h256c35.346 0 64 28.654 64 64v0 256c0 35.346-28.654 64-64 64v0z" />
<glyph unicode="&#xe930;" glyph-name="rvt-icon-lightning" d="M825.6 537.6c-9.985 22.478-31.932 37.961-57.544 38.399l-0.056 0.001h-217.6l147.2 294.4c4.009 8.126 6.354 17.689 6.354 27.801 0 23.545-12.715 44.121-31.653 55.236l-0.301 0.163c-8.523 3.951-18.499 6.256-29.013 6.256-21.742 0-41.182-9.856-54.095-25.343l-0.092-0.113-384-512c-8.246-9.894-13.251-22.74-13.251-36.755 0-9.978 2.537-19.364 7.002-27.547l-0.151 0.301c9.985-22.478 31.932-37.961 57.544-38.399l0.056-0.001h217.6l-147.2-294.4c-4.009-8.126-6.354-17.689-6.354-27.801 0-23.545 12.715-44.121 31.653-55.236l0.301-0.163h32c0.97-0.058 2.104-0.092 3.246-0.092 19.921 0 37.481 10.113 47.824 25.486l0.13 0.206 384 512c7.072 9.457 11.324 21.38 11.324 34.297 0 8.435-1.813 16.446-5.071 23.666l0.147-0.363z" />
<glyph unicode="&#xe931;" glyph-name="rvt-icon-menu" d="M960 768h-896c-35.346 0-64 28.654-64 64s28.654 64 64 64v0h896c35.346 0 64-28.654 64-64s-28.654-64-64-64v0zM960 384h-896c-35.346 0-64 28.654-64 64s28.654 64 64 64v0h896c35.346 0 64-28.654 64-64s-28.654-64-64-64v0zM960 0h-896c-35.346 0-64 28.654-64 64s28.654 64 64 64v0h896c35.346 0 64-28.654 64-64s-28.654-64-64-64v0z" />
<glyph unicode="&#xe932;" glyph-name="rvt-icon-arrow-right" d="M1018.88 423.68c3.046 7.199 4.815 15.571 4.815 24.355 0 17.748-7.224 33.808-18.892 45.401l-256.003 256.003c-11.118 9.565-25.694 15.389-41.629 15.389-35.346 0-64-28.654-64-64 0-15.936 5.824-30.511 15.46-41.713l-0.071 0.084 147.2-147.2h-741.76c-35.346 0-64-28.654-64-64s28.654-64 64-64v0h741.76l-146.56-146.56c-13.73-11.808-22.371-29.2-22.371-48.611 0-35.346 28.654-64 64-64 19.411 0 36.803 8.641 48.54 22.287l0.071 0.084 256 256c5.6 5.733 10.14 12.531 13.283 20.057l0.157 0.423z" />
<glyph unicode="&#xe933;" glyph-name="rvt-icon-undo" d="M532.48 856.96c-105.862-0.049-202.663-38.798-277.034-102.866l0.554 0.466v77.44c0 35.346-28.654 64-64 64s-64-28.654-64-64v0-256c0-35.346 28.654-64 64-64v0h256c35.346 0 64 28.654 64 64s-28.654 64-64 64v0h-128c54.133 53.792 128.735 87.040 211.103 87.040 165.42 0 299.52-134.1 299.52-299.52s-134.1-299.52-299.52-299.52c-0.191 0-0.382 0-0.572 0.001h0.030c-35.346 0-64-28.654-64-64s28.654-64 64-64v0c236.113 0 427.52 191.407 427.52 427.52s-191.407 427.52-427.52 427.52v0z" />
<glyph unicode="&#xe934;" glyph-name="rvt-icon-arrow-down" d="M813.44 301.44c-11.568 11.501-27.514 18.611-45.12 18.611s-33.552-7.109-45.123-18.614l-147.197-147.197v741.76c0 35.346-28.654 64-64 64s-64-28.654-64-64v0-741.76l-146.56 147.2c-11.118 9.565-25.694 15.389-41.629 15.389-35.346 0-64-28.654-64-64 0-15.936 5.824-30.511 15.46-41.713l-0.071 0.084 256-256c11.6-11.693 27.675-18.931 45.44-18.931s33.84 7.238 45.436 18.927l256.004 256.004c11.312 11.534 18.293 27.351 18.293 44.798 0 17.766-7.239 33.842-18.929 45.438l-0.004 0.004z" />
<glyph unicode="&#xe935;" glyph-name="rvt-icon-flag" d="M849.92 403.2l-179.84 128 175.36 161.92c15.91 14.668 25.842 35.615 25.842 58.88 0 44.183-35.817 80-80 80-0.085 0-0.17 0-0.255 0h-535.027c0 35.346-28.654 64-64 64s-64-28.654-64-64v0-832c0-35.346 28.654-64 64-64s64 28.654 64 64v0 256h547.84c0.142-0.001 0.31-0.001 0.478-0.001 44.183 0 80 35.817 80 80 0 26.848-13.225 50.606-33.516 65.117l-0.242 0.165zM653.44 384h-397.44v320h412.8l-200.96-185.6z" />
<glyph unicode="&#xe936;" glyph-name="rvt-icon-user-solid" d="M736 704c0-123.712-100.288-224-224-224s-224 100.288-224 224c0 123.712 100.288 224 224 224s224-100.288 224-224zM832-64h-640c-35.346 0-64 28.654-64 64v0 128c0 141.385 114.615 256 256 256v0h256c141.385 0 256-114.615 256-256v0-128c0-35.346-28.654-64-64-64v0z" />
<glyph unicode="&#xe937;" glyph-name="rvt-icon-bell" d="M932.48 188.16l-100.48 151.040v236.8c0 176.731-143.269 320-320 320s-320-143.269-320-320v0-236.8l-100.48-151.040c-8.347-12.433-13.322-27.738-13.322-44.205 0-43.241 34.307-78.469 77.187-79.951l0.136-0.004h228.48c0-70.692 57.308-128 128-128s128 57.308 128 128v0h225.92c43.015 1.486 77.322 36.714 77.322 79.955 0 16.467-4.975 31.772-13.504 44.493l0.182-0.288zM512 192h-264.32l72.32 108.8v275.2c0 106.039 85.961 192 192 192s192-85.961 192-192v0-275.2l72.32-108.8z" />
<glyph unicode="&#xe938;" glyph-name="rvt-icon-file" d="M666.24 896h-442.24c-45.95 0-83.2-37.25-83.2-83.2v0-729.6c0-45.95 37.25-83.2 83.2-83.2v0h576c45.95 0 83.2 37.25 83.2 83.2v0 595.84zM755.2 626.56v-50.56h-163.2v192h21.76zM268.8 128v640h192v-240c0-0.019 0-0.041 0-0.064 0-44.183 35.817-80 80-80 1.125 0 2.245 0.023 3.359 0.069l-0.159-0.005h211.2v-320z" />
<glyph unicode="&#xe939;" glyph-name="rvt-icon-pencil" d="M935.68 691.84l-184.32 182.4c-12.722 12.633-30.249 20.44-49.6 20.44s-36.878-7.807-49.604-20.444l0.004 0.004-652.16-657.92v-280.32h284.8l652.16 657.28c12.066 12.615 19.493 29.754 19.493 48.627 0 19.516-7.941 37.178-20.769 49.929l-0.003 0.003zM231.68 64h-103.68v99.84l384 384 101.12-99.84zM704 539.52l-102.4 100.48 102.4 102.4 100.48-102.4z" />
<glyph unicode="&#xe93a;" glyph-name="rvt-icon-arrow-up" d="M813.44 685.44l-256 256c-11.6 11.693-27.675 18.931-45.44 18.931s-33.84-7.238-45.436-18.927l-256.004-256.004c-11.629-11.629-18.822-27.695-18.822-45.44 0-35.491 28.771-64.262 64.262-64.262 17.745 0 33.811 7.193 45.44 18.822v0l146.56 147.2v-741.76c0-35.346 28.654-64 64-64s64 28.654 64 64v0 741.76l146.56-146.56c11.118-9.565 25.694-15.389 41.629-15.389 35.346 0 64 28.654 64 64 0 15.936-5.824 30.511-15.46 41.713l0.071-0.084z" />
<glyph unicode="&#xe93b;" glyph-name="rvt-icon-close" d="M602.24 448l338.56 338.56c9.565 11.118 15.389 25.694 15.389 41.629 0 35.346-28.654 64-64 64-15.936 0-30.511-5.824-41.713-15.46l0.084 0.071-338.56-338.56-338.56 339.2c-11.629 11.629-27.695 18.822-45.44 18.822-35.491 0-64.262-28.771-64.262-64.262 0-17.745 7.193-33.811 18.822-45.44v0l339.2-338.56-339.2-338.56c-13.73-11.808-22.371-29.2-22.371-48.611 0-35.346 28.654-64 64-64 19.411 0 36.803 8.641 48.54 22.287l0.071 0.084 339.2 338.56 338.56-338.56c11.118-9.565 25.694-15.389 41.629-15.389 35.346 0 64 28.654 64 64 0 15.936-5.824 30.511-15.46 41.713l0.071-0.084z" />
<glyph unicode="&#xe93c;" glyph-name="rvt-icon-minus-circle" d="M704 384h-384c-35.346 0-64 28.654-64 64s28.654 64 64 64v0h384c35.346 0 64-28.654 64-64s-28.654-64-64-64v0zM512-64c-282.77 0-512 229.23-512 512s229.23 512 512 512c282.77 0 512-229.23 512-512v0c0-282.77-229.23-512-512-512v0zM512 832c-212.077 0-384-171.923-384-384s171.923-384 384-384c212.077 0 384 171.923 384 384v0c0 212.077-171.923 384-384 384v0z" />
<glyph unicode="&#xe93d;" glyph-name="rvt-icon-arrow-left" d="M960 512h-741.76l147.2 146.56c11.629 11.629 18.822 27.695 18.822 45.44 0 35.491-28.771 64.262-64.262 64.262-17.745 0-33.811-7.193-45.44-18.822l-256-256c-11.693-11.6-18.931-27.675-18.931-45.44s7.238-33.84 18.927-45.436l256.004-256.004c11.118-9.565 25.694-15.389 41.629-15.389 35.346 0 64 28.654 64 64 0 15.936-5.824 30.511-15.46 41.713l0.071-0.084-146.56 147.2h741.76c35.346 0 64 28.654 64 64s-28.654 64-64 64v0z" />
<glyph unicode="&#xe93e;" glyph-name="rvt-icon-chevron-left" d="M672 0c-0.031 0-0.067 0-0.104 0-19.719 0-37.354 8.918-49.094 22.94l-0.082 0.1-311.040 373.76c-11.691 13.817-18.798 31.839-18.798 51.52s7.107 37.703 18.895 51.638l-0.097-0.118 311.040 373.12c11.837 14.17 29.513 23.12 49.28 23.12 35.39 0 64.080-28.69 64.080-64.080 0-15.624-5.591-29.942-14.883-41.062l0.083 0.102-286.080-343.040 286.080-343.040c9.223-11.013 14.824-25.332 14.824-40.96 0-35.346-28.654-64-64-64-0.037 0-0.073 0-0.11 0h0.006zM410.24 417.92v0zM410.24 481.92v0z" />
<glyph unicode="&#xe93f;" glyph-name="rvt-icon-chevron-right" d="M352 0c-0.031 0-0.067 0-0.104 0-35.346 0-64 28.654-64 64 0 15.628 5.601 29.947 14.906 41.060l-0.082-0.1 286.080 343.040-286.080 343.040c-9.208 11.018-14.8 25.336-14.8 40.96 0 35.39 28.69 64.080 64.080 64.080 19.767 0 37.443-8.95 49.197-23.018l0.083-0.102 311.040-373.76c11.691-13.817 18.798-31.839 18.798-51.52s-7.107-37.703-18.895-51.638l0.097 0.118-311.040-373.12c-11.822-14.122-29.457-23.040-49.176-23.040-0.037 0-0.073 0-0.11 0h0.006zM614.4 417.28v0zM614.4 481.28v0z" />
<glyph unicode="&#xe940;" glyph-name="rvt-icon-magnifying-glass" d="M1005.44 45.44l-308.48 308.48c44.312 61.785 70.86 138.922 70.86 222.26 0 212.077-171.923 384-384 384s-384-171.923-384-384c0-212.077 171.923-384 384-384 83.338 0 160.475 26.548 223.416 71.648l-1.156-0.787 308.48-308.48c11.6-11.693 27.675-18.931 45.44-18.931s33.84 7.238 45.436 18.927l0.004 0.004c11.693 11.6 18.931 27.675 18.931 45.44s-7.238 33.84-18.927 45.436l-0.004 0.004zM384 320c-141.385 0-256 114.615-256 256s114.615 256 256 256c141.385 0 256-114.615 256-256v0c0-141.385-114.615-256-256-256v0z" />
<glyph unicode="&#xe941;" glyph-name="rvt-icon-chevron-down" d="M512 162.56c-0.002 0-0.005 0-0.008 0-38.848 0-73.654 17.306-97.129 44.63l-0.143 0.17-335.36 391.040c-9.549 11.114-15.363 25.678-15.363 41.6 0 35.348 28.655 64.003 64.003 64.003 19.426 0 36.831-8.654 48.569-22.318l0.071-0.085 335.36-391.040 335.36 391.040c11.809 13.749 29.214 22.403 48.64 22.403 35.348 0 64.003-28.655 64.003-64.003 0-15.922-5.814-30.486-15.435-41.685l0.071 0.085-335.36-391.040c-23.617-27.494-58.423-44.8-97.272-44.8-0.003 0-0.006 0-0.009 0h0.001z" />
<glyph unicode="&#xe942;" glyph-name="rvt-icon-chevron-up" d="M896 192c-0.001 0-0.003 0-0.004 0-19.424 0-36.827 8.653-48.564 22.315l-0.071 0.085-335.36 391.040-335.36-391.040c-11.809-13.749-29.214-22.403-48.64-22.403-35.348 0-64.003 28.655-64.003 64.003 0 15.922 5.814 30.486 15.435 41.685l-0.071-0.085 335.36 391.68c24.101 25.561 58.192 41.475 96 41.475s71.899-15.914 95.939-41.41l0.061-0.065 335.36-391.040c9.901-11.214 15.946-26.036 15.946-42.27 0-34.652-27.539-62.872-61.925-63.967l-0.101-0.003z" />
<glyph unicode="&#xe943;" glyph-name="rvt-icon-ellipsis-vertical" d="M640 448c0-70.692-57.308-128-128-128s-128 57.308-128 128c0 70.692 57.308 128 128 128s128-57.308 128-128zM640 64c0-70.692-57.308-128-128-128s-128 57.308-128 128c0 70.692 57.308 128 128 128s128-57.308 128-128zM640 832c0-70.692-57.308-128-128-128s-128 57.308-128 128c0 70.692 57.308 128 128 128s128-57.308 128-128z" />
<glyph unicode="&#xe944;" glyph-name="rvt-icon-ellipsis" d="M640 448c0-70.692-57.308-128-128-128s-128 57.308-128 128c0 70.692 57.308 128 128 128s128-57.308 128-128zM1024 448c0-70.692-57.308-128-128-128s-128 57.308-128 128c0 70.692 57.308 128 128 128s128-57.308 128-128zM256 448c0-70.692-57.308-128-128-128s-128 57.308-128 128c0 70.692 57.308 128 128 128s128-57.308 128-128z" />
<glyph unicode="&#xe945;" glyph-name="rvt-icon-check" d="M430.080 128l-30.72 23.040-192 192c-8.827 10.881-14.171 24.898-14.171 40.163 0 35.346 28.654 64 64 64 17.179 0 32.778-6.769 44.274-17.785l-0.023 0.022 135.040-135.68 277.12 444.16c11.511 18.246 31.561 30.189 54.4 30.189 35.406 0 64.109-28.702 64.109-64.109 0-12.567-3.616-24.29-9.864-34.184l0.156 0.264-333.44-533.76z" />
<glyph unicode="&#xe946;" glyph-name="rvt-icon-plus" d="M896 512h-320v320c0 35.346-28.654 64-64 64s-64-28.654-64-64v0-320h-320c-35.346 0-64-28.654-64-64s28.654-64 64-64v0h320v-320c0-35.346 28.654-64 64-64s64 28.654 64 64v0 320h320c35.346 0 64 28.654 64 64s-28.654 64-64 64v0z" />
<glyph unicode="&#xe947;" glyph-name="rvt-icon-minus" d="M896 384h-768c-35.346 0-64 28.654-64 64s28.654 64 64 64v0h768c35.346 0 64-28.654 64-64s-28.654-64-64-64v0z" />
<glyph unicode="&#xe948;" glyph-name="rvt-icon-users-group-solid" d="M896 832c0-70.692-57.308-128-128-128s-128 57.308-128 128c0 70.692 57.308 128 128 128s128-57.308 128-128zM384 832c0-70.692-57.308-128-128-128s-128 57.308-128 128c0 70.692 57.308 128 128 128s128-57.308 128-128zM640 640c0-70.692-57.308-128-128-128s-128 57.308-128 128c0 70.692 57.308 128 128 128s128-57.308 128-128zM704-64h-384c-35.346 0-64 28.654-64 64v0 192c0 141.385 114.615 256 256 256v0 0c141.385 0 256-114.615 256-256v0-192c0-35.346-28.654-64-64-64v0zM288 640c-9.437 1.433-20.326 2.252-31.406 2.252-45.816 0-88.364-13.995-123.601-37.944l0.767 0.492c-81.108-54.026-133.825-145.098-133.825-248.483 0-2.193 0.024-4.381 0.071-6.562l-0.006 0.325v-158.080c0-35.346 28.654-64 64-64v0h96v64c0.035 131.014 71.771 245.266 178.101 305.651l1.739 0.909c-32.001 37.999-51.545 87.409-51.84 141.377v0.063zM736 640c9.437 1.433 20.326 2.252 31.406 2.252 45.816 0 88.364-13.995 123.601-37.944l-0.767 0.492c81.108-54.026 133.825-145.098 133.825-248.483 0-2.193-0.024-4.381-0.071-6.562l0.006 0.325v-158.080c0-35.346-28.654-64-64-64v0h-96v64c-0.035 131.014-71.771 245.266-178.101 305.651l-1.739 0.909c32.001 37.999 51.545 87.409 51.84 141.377v0.063z" />
<glyph unicode="&#xe949;" glyph-name="rvt-icon-users-solid" d="M896 768c0-106.039-85.961-192-192-192s-192 85.961-192 192c0 106.039 85.961 192 192 192s192-85.961 192-192zM512 512c0-106.039-85.961-192-192-192s-192 85.961-192 192c0 106.039 85.961 192 192 192s192-85.961 192-192zM64-64h512c35.346 0 64 28.654 64 64v0 64c0 106.039-85.961 192-192 192v0h-256c-106.039 0-192-85.961-192-192v0-64c0-35.346 28.654-64 64-64v0zM832 512h-224c-0.484-67.758-24.556-129.802-64.4-178.423l0.4 0.503c112.478-40.407 191.556-145.951 192-270.025v-0.055h224c35.346 0 64 28.654 64 64v0 192c0 106.039-85.961 192-192 192v0z" />
<glyph unicode="&#xe94a;" glyph-name="rvt-icon-star" d="M775.040 21.76c-10.746 0.222-20.84 2.796-29.858 7.225l0.418-0.185-233.6 122.88-233.6-122.88c-8.069-3.944-17.558-6.25-27.585-6.25-13.62 0-26.246 4.254-36.622 11.507l0.207-0.137c-16.267 11.755-26.73 30.67-26.73 52.028 0 4.234 0.411 8.372 1.196 12.377l-0.066-0.405 44.8 259.84-192 184.32c-11.708 11.602-18.957 27.687-18.957 45.465 0 32.099 23.631 58.679 54.445 63.292l0.352 0.043 261.12 38.4 115.84 234.88c10.607 21.542 32.403 36.103 57.6 36.103s46.993-14.561 57.433-35.728l0.167-0.375 116.48-236.16 261.12-38.4c31.166-4.656 54.797-31.236 54.797-63.335 0-17.778-7.249-33.863-18.952-45.46l-0.005-0.005-192-184.32 44.8-259.84c0.719-3.6 1.13-7.738 1.13-11.972 0-21.359-10.463-40.273-26.542-51.899l-0.187-0.129c-9.883-6.724-22.058-10.774-35.173-10.88h-0.027zM512 288c11.029-0.057 21.383-2.895 30.413-7.847l-0.333 0.167 148.48-77.44-28.8 165.12c-0.542 3.129-0.852 6.732-0.852 10.408 0 18.002 7.433 34.269 19.397 45.897l0.015 0.015 120.32 117.12-166.4 24.32c-21.221 3.273-38.756 16.577-47.833 34.828l-0.167 0.372-74.24 150.4-74.24-150.4c-9.244-18.623-26.779-31.927-47.642-35.154l-0.358-0.046-166.4-24.32 120.32-117.12c11.979-11.643 19.412-27.91 19.412-45.912 0-3.676-0.31-7.279-0.905-10.785l0.053 0.377-28.8-165.12 148.48 77.44c8.697 4.785 19.051 7.623 30.063 7.68h0.017z" />
<glyph unicode="&#xe94b;" glyph-name="rvt-icon-star-solid" d="M999.040 606.080c-7.663 22.994-27.397 39.95-51.493 43.478l-0.347 0.042-261.12 38.4-116.48 236.16c-10.607 21.542-32.403 36.103-57.6 36.103s-46.993-14.561-57.433-35.728l-0.167-0.375-116.48-236.16-261.12-38.4c-31.166-4.656-54.797-31.236-54.797-63.335 0-17.778 7.249-33.863 18.952-45.46l0.005-0.005 192-184.32-44.8-259.84c-0.719-3.6-1.13-7.738-1.13-11.972 0-21.359 10.463-40.273 26.542-51.899l0.187-0.129c10.169-7.115 22.795-11.37 36.415-11.37 10.027 0 19.516 2.306 27.965 6.417l-0.38-0.167 234.24 124.16 233.6-122.88c8.6-4.244 18.694-6.818 29.366-7.039l0.074-0.001c0.068 0 0.148 0 0.228 0 14.101 0 27.137 4.56 37.713 12.287l-0.181-0.126c16.267 11.755 26.73 30.67 26.73 52.028 0 4.234-0.411 8.372-1.196 12.377l0.066-0.405-44.8 259.84 192 184.32c10.463 11.357 16.878 26.583 16.878 43.307 0 7.409-1.259 14.523-3.574 21.142l0.137-0.449z" />
<glyph unicode="&#xe94c;" glyph-name="rvt-icon-home" d="M998.4 550.4l-448 332.16c-3.496 3.029-7.505 5.603-11.852 7.556l-0.308 0.124c-7.703 3.597-16.718 5.714-26.224 5.76h-0.016c-0.102 0.001-0.222 0.001-0.343 0.001-9.621 0-18.746-2.123-26.932-5.926l0.395 0.165c-4.655-2.077-8.664-4.651-12.221-7.732l0.061 0.052-447.36-332.16c-15.614-11.8-25.6-30.334-25.6-51.2v0c0-14.48 4.809-27.837 12.917-38.561l-0.117 0.161c11.8-15.614 30.334-25.6 51.2-25.6 14.48 0 27.837 4.809 38.561 12.917l-0.161-0.117 25.6 19.2v-403.2c0-35.346 28.654-64 64-64v0h640c35.346 0 64 28.654 64 64v0 403.2l25.6-19.2c10.563-7.991 23.92-12.8 38.4-12.8v0c35.346 0 64 28.654 64 64 0 20.866-9.986 39.4-25.439 51.083l-0.161 0.117zM768 128h-192v256h-128v-256h-192v433.92l256 192 256-192z" />
<glyph unicode="&#xe94d;" glyph-name="rvt-icon-eye" d="M512 128c-207.172 8.155-387.795 114.889-497.167 274.33l-1.393 2.15c-8.381 12.191-13.386 27.271-13.386 43.52s5.004 31.329 13.556 43.783l-0.171-0.263c110.765 161.591 291.388 268.325 497.353 276.442l1.207 0.038c207.893-5.56 389.596-112.809 497.797-273.627l1.403-2.213c8.407-12.4 13.421-27.694 13.421-44.16s-5.014-31.76-13.6-44.439l0.178 0.279c-109.604-163.031-291.307-270.28-498.373-275.822l-0.827-0.018zM142.080 448c86.993-111.956 219.265-185.172 368.847-191.961l1.073-0.039c151.404 6.141 284.503 79.513 371.004 190.881l0.836 1.119c-87.337 112.487-220.436 185.859-370.87 191.969l-0.97 0.031c-150.655-6.828-282.927-80.044-369.085-190.883l-0.835-1.117zM640 448c0-70.692-57.308-128-128-128s-128 57.308-128 128c0 70.692 57.308 128 128 128s128-57.308 128-128z" />
<glyph unicode="&#xe94e;" glyph-name="rvt-icon-filter" d="M336 7.68c-44.183 0-80 35.817-80 80v0 340.48l-240.64 355.2c-4.398 9.597-6.961 20.819-6.961 32.64 0 44.155 35.772 79.955 79.917 80h844.804c44.154-0.038 79.933-35.841 79.933-80 0-14.339-3.773-27.798-10.38-39.436l0.207 0.396-7.68-8.96-291.2-343.68v-159.36c0-0.076 0-0.167 0-0.257 0-28.434-14.953-53.375-37.425-67.388l-0.335-0.195-300.8-183.68c-8.711-3.598-18.822-5.71-29.42-5.76h-0.020zM179.84 768l204.16-300.16v-293.76l192 117.76v179.84l252.16 296.32z" />
<glyph unicode="&#xe94f;" glyph-name="rvt-icon-ban" d="M512 960c-282.77 0-512-229.23-512-512s229.23-512 512-512c282.77 0 512 229.23 512 512v0c0 282.77-229.23 512-512 512v0zM896 448c-0.097-83.296-26.7-160.359-71.825-223.23l0.785 1.15-535.040 535.040c61.749 44.234 138.82 70.733 222.080 70.733 211.969 0 383.825-171.748 384-383.676v-0.016zM128 448c0.097 83.296 26.7 160.359 71.825 223.23l-0.785-1.15 535.040-535.040c-61.749-44.234-138.82-70.733-222.080-70.733-211.969 0-383.825 171.748-384 383.676v0.016z" />
<glyph unicode="&#xe950;" glyph-name="rvt-icon-pause" d="M320 64c-35.346 0-64 28.654-64 64v0 640c0 35.346 28.654 64 64 64s64-28.654 64-64v0-640c0-35.346-28.654-64-64-64v0zM640 64c-35.346 0-64 28.654-64 64v0 640c0 35.346 28.654 64 64 64s64-28.654 64-64v0-640c0-35.346-28.654-64-64-64v0z" />
<glyph unicode="&#xe951;" glyph-name="rvt-icon-play" d="M144 9.6c-44.183 0-80 35.817-80 80v0 716.8c0.273 43.975 35.985 79.518 79.999 79.518 13.067 0 25.402-3.133 36.295-8.688l-0.453 0.21 716.16-357.76c26.568-13.381 44.476-40.439 44.476-71.68s-17.907-58.299-44.017-71.47l-0.459-0.21-716.16-357.76c-10.406-5.503-22.72-8.798-35.789-8.96h-0.051zM192 728.32v-560.64l560.64 280.32zM838.4 405.12v0zM838.4 490.88v0z" />
<glyph unicode="&#xe952;" glyph-name="rvt-icon-gears" d="M173.44 400.64l7.68 47.36 47.36 6.4 64 8.96 3.84 8.96-37.12 51.84-3.2 10.88c-8.162 8.503-15.19 18.186-20.784 28.745l-0.336 0.695c-16.875 21.478-27.063 48.906-27.063 78.713 0 70.692 57.308 128 128 128 58.152 0 107.247-38.779 122.835-91.887l0.228-0.905 29.44-22.4 11.52 4.48 10.88 64 8.32 47.36 47.36 6.4h16l33.28 46.080c-20.932 27.679-45.219 51.356-72.598 70.997l-1.002 0.683-71.68-53.76c-8.105 4.847-17.776 9.775-27.777 14.083l-1.663 0.637c-9.827 4.143-21.777 8.091-34.079 11.149l-1.761 0.371-14.72 88.32c-14.81 2.326-31.89 3.655-49.28 3.655s-34.47-1.329-51.144-3.89l1.864 0.236-12.8-88.32c-24.328-6.825-45.588-16.219-65.123-28.158l1.123 0.638-74.24 51.2c-26.55-20.165-49.354-43.375-68.465-69.462l-0.655-0.938 56.32-71.68c-11.253-18.422-20.269-39.755-25.908-62.423l-0.332-1.577-90.88-16c-2.326-14.81-3.655-31.89-3.655-49.28s1.329-34.47 3.89-51.144l-0.236 1.864 88.32-12.8c6.825-24.328 16.219-45.588 28.158-65.123l-0.638 1.123-51.2-74.24c20.188-26.294 43.393-48.889 69.437-67.814l0.963-0.666 24.96 18.56c0.64 9.6 0.64 19.84 2.56 30.080zM906.24 249.6l103.040 14.72c2.702 17.214 4.246 37.067 4.246 57.28s-1.544 40.065-4.52 59.446l0.274-2.166-102.4 17.28c-7.072 28.853-17.398 54.23-30.838 77.589l0.758-1.429 64 83.2c-22.591 32.445-48.805 60.287-78.553 83.863l-0.807 0.617-85.12-64c-20.782 14.079-44.788 25.636-70.434 33.427l-1.886 0.493-14.72 103.040c-17.214 2.702-37.067 4.246-57.28 4.246s-40.065-1.544-59.446-4.52l2.166 0.274-17.28-102.4c-28.853-7.072-54.23-17.398-77.589-30.838l1.429 0.758-83.2 64c-32.719-22.737-60.776-49.167-84.497-79.183l-0.623-0.817 60.16-84.48c-13.921-21.712-25.109-46.857-32.221-73.662l-0.419-1.858-103.040-14.72c-2.702-17.214-4.246-37.067-4.246-57.28s1.544-40.065 4.52-59.446l-0.274 2.166 102.4-17.28c7.072-28.853 17.398-54.23 30.838-77.589l-0.758 1.429-64-83.2c22.354-31.388 48.122-58.375 77.247-81.288l0.833-0.632 85.12 60.16c21.712-13.921 46.857-25.109 73.662-32.221l1.858-0.419 14.72-103.040c17.214-2.702 37.067-4.246 57.28-4.246s40.065 1.544 59.446 4.52l-2.166-0.274 17.28 102.4c29.033 6.572 54.668 16.49 78.313 29.567l-1.513-0.767 83.2-64c31.986 23.175 59.424 50.003 82.504 80.327l0.696 0.953-60.16 85.12c13.932 21.711 25.121 46.858 32.223 73.667l0.417 1.853zM757.76 267.52c-23.086-52.462-74.612-88.428-134.538-88.428-80.943 0-146.56 65.617-146.56 146.56s65.617 146.56 146.56 146.56c21.603 0 42.114-4.674 60.577-13.066l-0.919 0.374c51.636-23.425 86.902-74.528 86.902-133.868 0-21.017-4.424-41-12.391-59.070l0.369 0.938z" />
<glyph unicode="&#xe953;" glyph-name="rvt-icon-rss" d="M320 96c0-88.366-71.634-160-160-160s-160 71.634-160 160c0 88.366 71.634 160 160 160s160-71.634 160-160zM640-64c-0.024 0-0.052 0-0.080 0-34.221 0-62.168 26.858-63.914 60.644l-0.006 0.156c-15.412 276.35-235.65 496.588-510.59 511.937l-1.41 0.063c-33.986 1.752-60.88 29.735-60.88 64 0 35.39 28.69 64.080 64.080 64.080 1.126 0 2.244-0.029 3.356-0.086l-0.156 0.006c342.131-18.728 614.871-291.468 633.525-631.884l0.075-1.716c0.051-0.956 0.080-2.074 0.080-3.2 0-35.346-28.654-64-64-64-0.028 0-0.056 0-0.084 0h0.004zM960-64c-35.346 0-64 28.654-64 64v0c-17.93 452.107-379.893 814.070-830.335 831.948l-1.665 0.052c-35.346 0-64 28.654-64 64s28.654 64 64 64v0c522.75-18.104 941.895-437.248 959.954-958.31l0.046-1.69c0-35.346-28.654-64-64-64v0z" />
<glyph unicode="&#xe954;" glyph-name="rvt-icon-circle-empty" d="M512-64c-281.6 0-512 230.4-512 512s230.4 512 512 512 512-230.4 512-512-230.4-512-512-512zM512 832c-211.2 0-384-172.8-384-384s172.8-384 384-384 384 172.8 384 384-172.8 384-384 384z" />
<glyph unicode="&#xe955;" glyph-name="rvt-icon-circle" d="M512-64c-281.6 0-512 230.4-512 512s230.4 512 512 512 512-230.4 512-512-230.4-512-512-512z" />
<glyph unicode="&#xe956;" glyph-name="rvt-icon-close-circle-solid" d="M512 960c-282.77 0-512-229.23-512-512s229.23-512 512-512c282.77 0 512 229.23 512 512v0c0 282.77-229.23 512-512 512v0zM749.44 301.44c13.73-11.808 22.371-29.2 22.371-48.611 0-35.346-28.654-64-64-64-19.411 0-36.803 8.641-48.54 22.287l-0.071 0.084-147.2 146.56-146.56-147.2c-11.118-9.565-25.694-15.389-41.629-15.389-35.346 0-64 28.654-64 64 0 15.936 5.824 30.511 15.46 41.713l-0.071-0.084 146.56 147.2-147.2 146.56c-11.629 11.629-18.822 27.695-18.822 45.44 0 35.491 28.771 64.262 64.262 64.262 17.745 0 33.811-7.193 45.44-18.822v0l146.56-147.2 146.56 146.56c11.118 9.565 25.694 15.389 41.629 15.389 35.346 0 64-28.654 64-64 0-15.936-5.824-30.511-15.46-41.713l0.071 0.084-146.56-146.56z" />
</font>
</defs>
</svg>
